# xmcd
#
# Track frame offsets:
#	150
#	6028
#	22237
#	32243
#	46643
#	57421
#	75577
#	94475
#	110088
#	122477
#	136873
#	154418
#	177954
#	193601
#	213062
#	231024
#	246934
#	264094
#	281467
#	298878
#	319337
#
# Disc length: 4471 seconds
#
# Revision: 1
# Processed by: cddbd v1.5.2PL0 Copyright (c) Steve Scherf et al.
# Submitted via: audiograbber 1.83.01
#
DISCID=2a117515
DTITLE=Fancy - Forever Magic
DYEAR=1900
DGENRE=
TTITLE0=I Love You(show-introduction)
TTITLE1=Flames of Love - ‏בגט ןמזאנ
TTITLE2=I Can Give You Love
TTITLE3=Love Has Called Me Home
TTITLE4=Forever Magic
TTITLE5=For One Night In Heaven
TTITLE6=Little Juliet
TTITLE7=I`m Melting Your Heart
TTITLE8=I`m Your Bodyguard
TTITLE9=Moonlight
TTITLE10=A Voice In The Dark(version 2008)
TTITLE11=My Way
TTITLE12=D.I.S.C.O.(Lust For Life)
TTITLE13=Slice Me Nice
TTITLE14=Come Back And Break My Heart
TTITLE15=Diceman
TTITLE16=When Clowns Cry
TTITLE17=How Do You Feel Right Now
TTITLE18=Fools Cry
TTITLE19=Lady Of Ice
TTITLE20=O Mio Babino Caro(feat.Shequida)
EXTD=
EXTT0=
EXTT1=
EXTT2=
EXTT3=
EXTT4=
EXTT5=
EXTT6=
EXTT7=
EXTT8=
EXTT9=
EXTT10=
EXTT11=
EXTT12=
EXTT13=
EXTT14=
EXTT15=
EXTT16=
EXTT17=
EXTT18=
EXTT19=
EXTT20=
PLAYORDER=
